<svg xmlns="http://www.w3.org/2000/svg" width="64" height="64" viewBox="0 0 64 64">
  <g transform="translate(20, 32)">
    <rect x="-8" y="-32" width="24" height="8" fill="#A0BFFF"/>
    <rect x="0" y="-24" width="24" height="8" fill="#A0BFFF"/>
    <rect x="8" y="-16" width="20" height="8" fill="#A0BFFF"/>
    <rect x="8" y="-8" width="20" height="8" fill="#A0BFFF"/>
    <rect x="8" y="0" width="20" height="8" fill="#A0BFFF"/>
    <rect x="0" y="8" width="24" height="8" fill="#A0BFFF"/>
    <rect x="-8" y="16" width="24" height="8" fill="#A0BFFF"/>
    <rect x="-16" y="8" width="8" height="8" fill="#A0BFFF"/>
    <rect x="-16" y="0" width="8" height="8" fill="#A0BFFF"/>
    <rect x="-16" y="-8" width="8" height="8" fill="#A0BFFF"/>
    <rect x="-16" y="-16" width="8" height="8" fill="#A0BFFF"/>
    <rect x="20" y="-28" width="6" height="6" fill="#A0BFFF"/>
    <rect x="28" y="-10" width="4" height="4" fill="#A0BFFF"/>
    <rect x="18" y="10" width="4" height="4" fill="#A0BFFF"/>
  </g>
</svg>
