<svg xmlns="http://www.w3.org/2000/svg" width="64" height="64" viewBox="0 0 64 64">
  <g transform="translate(32, 32)">
    <rect x="-4" y="-36" width="8" height="10" fill="#F5C400"/>
    <rect x="-4" y="26" width="8" height="10" fill="#F5C400"/>
    <rect x="-36" y="-4" width="10" height="8" fill="#F5C400"/>
    <rect x="26" y="-4" width="10" height="8" fill="#F5C400"/>
    <rect x="18" y="-28" width="8" height="8" fill="#F5C400"/>
    <rect x="-26" y="-28" width="8" height="8" fill="#F5C400"/>
    <rect x="18" y="20" width="8" height="8" fill="#F5C400"/>
    <rect x="-26" y="20" width="8" height="8" fill="#F5C400"/>
    <rect x="-16" y="-24" width="32" height="8" fill="#F5C400"/>
    <rect x="-24" y="-16" width="48" height="8" fill="#F5C400"/>
    <rect x="-24" y="-8" width="48" height="8" fill="#F5C400"/>
    <rect x="-24" y="0" width="48" height="8" fill="#F5C400"/>
    <rect x="-24" y="8" width="48" height="8" fill="#F5C400"/>
    <rect x="-16" y="16" width="32" height="8" fill="#F5C400"/>
    <rect x="-8" y="-8" width="16" height="16" fill="#FFE066"/>
  </g>
</svg>
